<svg xmlns="http://www.w3.org/2000/svg" xmlns:xlink="http://www.w3.org/1999/xlink" aria-hidden="true" role="img" class="iconify iconify--logos" width="35.93" height="32" preserveAspectRatio="xMidYMid meet" viewBox="0 0 256 228"><path fill="#00D8FF" d="M210.483 134.315c0 12.912-10.471 23.384-23.384 23.384s-23.384-10.472-23.384-23.384c0-12.913 10.471-23.384 23.384-23.384s23.384 10.471 23.384 23.384Z"></path><path fill="#00D8FF" d="M70.215 134.315c0 12.912-10.471 23.384-23.384 23.384S23.447 147.227 23.447 134.315c0-12.913 10.471-23.384 23.384-23.384s23.384 10.471 23.384 23.384Z"></path><path fill="#00D8FF" d="M128 181.403c0 12.912-10.471 23.384-23.384 23.384S81.232 194.315 81.232 181.403c0-12.913 10.471-23.384 23.384-23.384S128 168.49 128 181.403Z"></path><path fill="#00D8FF" d="M128 87.226c0 12.912-10.471 23.384-23.384 23.384S81.232 100.138 81.232 87.226C81.232 74.313 91.703 63.842 104.616 63.842S128 74.313 128 87.226Z"></path><path fill="#00D8FF" d="M163.797 109.403c0 12.912-10.471 23.384-23.384 23.384s-23.384-10.472-23.384-23.384c0-12.913 10.471-23.384 23.384-23.384s23.384 10.471 23.384 23.384Z"></path><path fill="#00D8FF" d="M92.203 109.403c0 12.912-10.471 23.384-23.384 23.384s-23.384-10.472-23.384-23.384c0-12.913 10.471-23.384 23.384-23.384s23.384 10.471 23.384 23.384Z"></path><path fill="#00D8FF" d="M187.097 134.315c0 12.912-10.471 23.384-23.384 23.384s-23.384-10.472-23.384-23.384c0-12.913 10.471-23.384 23.384-23.384s23.384 10.471 23.384 23.384Z"></path><path fill="#00D8FF" d="M68.903 134.315c0 12.912-10.471 23.384-23.384 23.384S22.135 147.227 22.135 134.315c0-12.913 10.471-23.384 23.384-23.384s23.384 10.471 23.384 23.384Z"></path><path fill="#00D8FF" d="M128 204.579c0 12.912-10.471 23.384-23.384 23.384S81.232 217.491 81.232 204.579c0-12.913 10.471-23.384 23.384-23.384S128 191.666 128 204.579Z"></path><path fill="#00D8FF" d="M128 58.226c0 12.912-10.471 23.384-23.384 23.384S81.232 71.138 81.232 58.226C81.232 45.313 91.703 34.842 104.616 34.842S128 45.313 128 58.226Z"></path><path fill="#00D8FF" d="M163.797 159.315c0 12.912-10.471 23.384-23.384 23.384s-23.384-10.472-23.384-23.384c0-12.913 10.471-23.384 23.384-23.384s23.384 10.471 23.384 23.384Z"></path><path fill="#00D8FF" d="M92.203 159.315c0 12.912-10.471 23.384-23.384 23.384s-23.384-10.472-23.384-23.384c0-12.913 10.471-23.384 23.384-23.384s23.384 10.471 23.384 23.384Z"></path><path fill="#00D8FF" d="M187.097 109.403c0 12.912-10.471 23.384-23.384 23.384s-23.384-10.472-23.384-23.384c0-12.913 10.471-23.384 23.384-23.384s23.384 10.471 23.384 23.384Z"></path><path fill="#00D8FF" d="M68.903 109.403c0 12.912-10.471 23.384-23.384 23.384S22.135 122.315 22.135 109.403c0-12.913 10.471-23.384 23.384-23.384s23.384 10.471 23.384 23.384Z"></path><path fill="#00D8FF" d="M128 23.842c0 12.912-10.471 23.384-23.384 23.384S81.232 36.754 81.232 23.842C81.232 10.929 91.703.458 104.616.458S128 10.929 128 23.842Z"></path><path fill="#00D8FF" d="M210.483 109.403c0 12.912-10.471 23.384-23.384 23.384s-23.384-10.472-23.384-23.384c0-12.913 10.471-23.384 23.384-23.384s23.384 10.471 23.384 23.384Z"></path><path fill="#00D8FF" d="M70.215 109.403c0 12.912-10.471 23.384-23.384 23.384S23.447 122.315 23.447 109.403c0-12.913 10.471-23.384 23.384-23.384s23.384 10.471 23.384 23.384Z"></path><path fill="#00D8FF" d="M210.483 159.315c0 12.912-10.471 23.384-23.384 23.384s-23.384-10.472-23.384-23.384c0-12.913 10.471-23.384 23.384-23.384s23.384 10.471 23.384 23.384Z"></path><path fill="#00D8FF" d="M70.215 159.315c0 12.912-10.471 23.384-23.384 23.384S23.447 172.227 23.447 159.315c0-12.913 10.471-23.384 23.384-23.384s23.384 10.471 23.384 23.384Z"></path><path fill="#00D8FF" d="M128 204.579c0 12.912-10.471 23.384-23.384 23.384S81.232 217.491 81.232 204.579c0-12.913 10.471-23.384 23.384-23.384S128 191.666 128 204.579Z"></path><path fill="#00D8FF" d="M163.797 134.315c0 12.912-10.471 23.384-23.384 23.384s-23.384-10.472-23.384-23.384c0-12.913 10.471-23.384 23.384-23.384s23.384 10.471 23.384 23.384Z"></path><path fill="#00D8FF" d="M92.203 134.315c0 12.912-10.471 23.384-23.384 23.384s-23.384-10.472-23.384-23.384c0-12.913 10.471-23.384 23.384-23.384s23.384 10.471 23.384 23.384Z"></path></path></svg>
